<?xml version="1.0" encoding="utf-8"?>
<!-- Generator: Adobe Illustrator 17.1.0, SVG Export Plug-In . SVG Version: 6.00 Build 0)  -->
<!DOCTYPE svg PUBLIC "-//W3C//DTD SVG 1.1//EN" "http://www.w3.org/Graphics/SVG/1.1/DTD/svg11.dtd">
<svg version="1.1" id="Calque_1" xmlns="http://www.w3.org/2000/svg" xmlns:xlink="http://www.w3.org/1999/xlink" x="0px" y="0px"
	 viewBox="0 0 276 75" enable-background="new 0 0 276 75" xml:space="preserve">
<g>
	<path fill="#085496" d="M101.5,1.4c-0.1-0.5,0.3-0.6,0.5-0.6c3.8,0,8.1,0,11.8-0.1c3.9-0.1,7.3,0.3,9.7,2c1.5,1.1,2.8,2.7,3,4.9
		c0.4,4.1-1.6,7-3.8,8.7c-1.7,1.3-4.1,2.3-7,2.5c-0.8,0-2.6,0.2-2.6-0.4c0-0.6,1.3-0.4,2-0.5c2.3-0.2,4.1-1,5.4-2.2
		c1.6-1.6,2.7-4.3,1.8-7.6c-0.6-2-2.1-3.9-3.8-4.9c-2-1.3-3.9-1.9-7.2-1.6c-0.7,0.1-1.7,0.2-2,0.8c-0.5,0.8-0.4,2.3-0.5,3.6
		c-0.2,3.9-0.1,8.4-0.1,12.1c0,5.6-0.8,9.6-3.8,12.5c-2.7,2.7-7.1,4.3-12.2,3.8c-2.4-0.2-4.5-0.7-6.3-1.7c-1.7-1-3.2-2.2-4.2-3.9
		c-2.5-4.1-1.9-10.7-1.9-17.2c0-2.2,0.1-4.4,0-6.4c-0.1-0.8,0-1.8-0.4-2.5c-0.3-0.5-0.9-0.8-1.7-0.9c-0.4-0.1-2,0-2.1-0.5
		c-0.1-0.7,2.1-0.5,2.7-0.5h6.4c0.8,0,2.8-0.2,2.8,0.4c0,0.5-0.8,0.4-1.2,0.4c-1.9,0.3-2.1,1.4-2.2,3.5c-0.1,3.3-0.1,6.7-0.1,9.8
		c0,4.5-0.1,9,1.2,12c1.3,3,4.1,5.1,7.4,5.6c4,0.6,7.9-0.8,9.8-3.1c3-3.6,2.6-9.6,2.6-16.4c0-2.7,0.2-5.4,0-7.8c0-0.7,0-1.8-0.4-2.5
		C104.5,1.5,102.9,1.8,101.5,1.4"/>
	<path fill="#085496" d="M159.2,1.2c-1.1,1.5-2.3,2.8-3.5,4.2c-3.4,4.1-7.1,8.2-10.6,12.3c-4.7,5.5-9.4,11-14.1,16.4h-15
		c0-0.5,0.6-0.8,0.9-1.2c6.3-7.4,12.6-15.2,19-22.7c1.3-1.5,2.5-3.1,4-4.4c2.9-2.5,7-4.5,11.6-4.9c0.5-0.1,1.3,0,1.6-0.2
		C155.4,0.7,157.2,0.9,159.2,1.2"/>
	<path fill="#085496" d="M178.9,1.2c-1.1,1.5-2.3,2.8-3.5,4.2c-8.2,9.5-16.4,19.2-24.7,28.7h-15c0-0.4,0.4-0.6,0.6-0.9
		c6.3-7.6,12.9-15.3,19.3-23c1-1.1,1.8-2.3,2.8-3.4c1.7-1.8,4-3.1,6.2-4.1c1.8-0.8,3.8-1.5,5.7-1.7c0.7-0.1,1.8-0.1,2.4-0.3
		C175.1,0.7,177,0.9,178.9,1.2"/>
	<path fill="#085496" d="M198.5,1.2c-0.1,0.4-0.5,0.8-0.8,1.1c-2,2.3-4.1,4.8-6.2,7.2c-7.1,8.1-14,16.5-21.2,24.6h-15
		c0.1-0.5,0.5-0.9,0.9-1.2c6.2-7.3,12.4-14.8,18.6-22.2c1.3-1.5,2.5-3.3,4-4.6c2.9-2.5,7.2-4.8,11.9-5.2c0.5,0,1.3,0,1.6-0.2
		C194.6,0.7,196.9,0.9,198.5,1.2"/>
	<path fill="#085496" d="M274.5,49.4v-0.8h-5.8v0.8h2.4V57h0.9v-7.6H274.5z M264.2,54.3H261l1.6-4.5L264.2,54.3z M266.1,57l-3.1-8.4
		h-0.8l-3.1,8.4h1l0.7-1.9h3.7l0.7,1.9H266.1z M256.5,49.4v-0.8h-5.8v0.8h2.4V57h0.9v-7.6H256.5z M245.6,46h-1l-1,1.8h0.8L245.6,46z
		 M246.9,57v-0.8h-4.3v-3h3.7v-0.8h-3.7v-3h4.3v-0.8h-5.2V57H246.9z M236.5,49.6v-1h-1v1.9L236.5,49.6z M233,57v-0.8h-4.3v-7.6h-0.9
		V57H233z M216.3,51c0,1-0.7,1.5-1.7,1.5h-2.2v-3.1h2.2C215.6,49.4,216.3,49.9,216.3,51 M217.3,57l-2-3.8c1.1-0.2,1.8-1,1.8-2.3
		c0-1.5-1-2.3-2.5-2.3h-3.2V57h0.9v-3.7h2l1.9,3.7H217.3z M205.3,54.3h-3.1l1.6-4.5L205.3,54.3z M207.2,57l-3.1-8.4h-0.8l-3.1,8.4h1
		l0.7-1.9h3.7l0.7,1.9H207.2z M196.5,51.1c0,1.1-0.7,1.7-1.8,1.7h-2.2v-3.4h2.2C195.8,49.4,196.5,50,196.5,51.1 M197.4,51.1
		c0-1.5-1.1-2.5-2.6-2.5h-3.1V57h0.9v-3.5h2.2C196.3,53.6,197.4,52.6,197.4,51.1 M181.1,57v-0.8h-4.3v-3h3.7v-0.8h-3.7v-3h4.3v-0.8
		h-5.2V57H181.1z M170.8,54.2v-5.6h-0.9v5.6c0,1.3-0.8,2.1-2,2.1c-1.2,0-2-0.8-2-2.1v-5.6h-0.9v5.6c0,1.7,1.2,2.9,2.9,2.9
		C169.5,57.1,170.8,55.9,170.8,54.2 M159.7,57v-8.4h-0.9v6.7l-4.5-6.7h-0.9V57h0.9v-6.8l4.5,6.8H159.7z M148.2,57v-8.4h-0.9v6.7
		l-4.5-6.7H142V57h0.9v-6.8l4.5,6.8H148.2z M136.1,52.8c0,1.8-0.1,2.3-0.6,2.9c-0.4,0.4-0.9,0.6-1.5,0.6c-0.6,0-1.1-0.2-1.5-0.6
		c-0.5-0.5-0.6-1.1-0.6-2.9c0-1.8,0.1-2.3,0.6-2.9c0.4-0.4,0.9-0.6,1.5-0.6c0.6,0,1.1,0.2,1.5,0.6C136,50.5,136.1,51,136.1,52.8
		 M137,52.8c0-1.8,0-2.6-0.8-3.4c-0.6-0.6-1.3-0.9-2.2-0.9c-0.8,0-1.6,0.3-2.2,0.9c-0.8,0.8-0.8,1.6-0.8,3.4c0,1.8,0,2.6,0.8,3.4
		c0.6,0.6,1.3,0.9,2.2,0.9c0.8,0,1.6-0.3,2.2-0.9C137,55.4,137,54.6,137,52.8 M126.6,54.6h-0.9c-0.2,1-1,1.7-2,1.7
		c-0.6,0-1.1-0.2-1.5-0.6c-0.5-0.5-0.6-1.1-0.6-2.9c0-1.8,0.1-2.3,0.6-2.9c0.4-0.4,0.9-0.6,1.5-0.6c1.1,0,1.8,0.7,2,1.7h0.9
		c-0.3-1.6-1.4-2.5-2.9-2.5c-0.8,0-1.6,0.3-2.2,0.9c-0.8,0.8-0.8,1.6-0.8,3.4c0,1.8,0,2.6,0.8,3.4c0.6,0.6,1.3,0.9,2.2,0.9
		C125.2,57.1,126.3,56.2,126.6,54.6 M116.3,57v-0.8H112v-3h3.7v-0.8H112v-3h4.3v-0.8h-5.2V57H116.3z M105.3,51c0,1-0.7,1.5-1.7,1.5
		h-2.2v-3.1h2.2C104.6,49.4,105.3,49.9,105.3,51 M106.4,57l-2-3.8c1.1-0.2,1.8-1,1.8-2.3c0-1.5-1-2.3-2.5-2.3h-3.2V57h0.9v-3.7h2
		l1.9,3.7H106.4z M88.7,46h-1l-1,1.8h0.8L88.7,46z M90,57v-0.8h-4.3v-3h3.7v-0.8h-3.7v-3H90v-0.8h-5.2V57H90z M80.3,49.4v-0.8h-5.8
		v0.8H77V57h0.9v-7.6H80.3z M70.1,48.6h-0.9V57h0.9V48.6z M64.5,54.7c0-0.7-0.2-1.3-0.7-1.7c-0.4-0.3-0.7-0.5-1.5-0.6l-0.9-0.1
		c-0.4-0.1-0.9-0.2-1.1-0.5c-0.3-0.2-0.4-0.6-0.4-1c0-0.9,0.7-1.6,1.8-1.6c0.9,0,1.4,0.2,2,0.7l0.6-0.6c-0.7-0.7-1.4-0.9-2.5-0.9
		c-1.7,0-2.7,0.9-2.7,2.4c0,0.7,0.2,1.2,0.6,1.6c0.4,0.3,0.9,0.5,1.6,0.6l1,0.2c0.6,0.1,0.8,0.2,1.1,0.4c0.3,0.2,0.4,0.6,0.4,1.1
		c0,1-0.8,1.6-2,1.6c-0.9,0-1.6-0.2-2.3-0.9L58.7,56c0.8,0.8,1.6,1.1,2.9,1.1C63.4,57.1,64.5,56.2,64.5,54.7 M53.7,51
		c0,1-0.7,1.5-1.7,1.5h-2.2v-3.1H52C53,49.4,53.7,49.9,53.7,51 M54.7,57l-2-3.8c1.1-0.2,1.8-1,1.8-2.3c0-1.5-1-2.3-2.5-2.3h-3.2V57
		h0.9v-3.7h2l1.9,3.7H54.7z M44.1,57v-0.8h-4.3v-3h3.7v-0.8h-3.7v-3h4.3v-0.8h-5.2V57H44.1z M34.7,48.6h-0.9l-2.2,6.8l-2.2-6.8h-0.9
		l2.8,8.4H32L34.7,48.6z M24.3,48.6h-0.9V57h0.9V48.6z M18.1,57v-8.4h-0.9v6.7l-4.5-6.7h-0.9V57h0.9v-6.8l4.5,6.8H18.1z M6.7,54.2
		v-5.6H5.8v5.6c0,1.3-0.8,2.1-2,2.1c-1.2,0-2-0.8-2-2.1v-5.6H0.8v5.6c0,1.7,1.2,2.9,2.9,2.9C5.5,57.1,6.7,55.9,6.7,54.2"/>
	<path fill="#085496" d="M47.8,33.9v-6.3h-1.2v2.5h-2.1v-2.5h-1.2v6.3h1.2v-2.6h2.1v2.6H47.8z M42.7,31.9h-1.2
		c-0.1,0.3-0.2,0.5-0.4,0.6c-0.2,0.2-0.4,0.2-0.7,0.2c-0.3,0-0.6-0.1-0.8-0.3c-0.1-0.1-0.1-0.1-0.2-0.2c0-0.1-0.1-0.2-0.1-0.3
		c0-0.1,0-0.3,0-0.5c0-0.2,0-0.4,0-0.8c0-0.3,0-0.6,0-0.8c0-0.2,0-0.4,0-0.5c0-0.1,0.1-0.2,0.1-0.3c0-0.1,0.1-0.2,0.2-0.2
		c0.2-0.2,0.4-0.3,0.8-0.3c0.3,0,0.5,0.1,0.7,0.2c0.2,0.2,0.3,0.4,0.4,0.6h1.2c-0.1-0.6-0.4-1.1-0.8-1.5c-0.4-0.3-0.9-0.5-1.5-0.5
		c-0.7,0-1.2,0.2-1.7,0.7c-0.3,0.3-0.4,0.6-0.5,0.9c-0.1,0.4-0.1,0.9-0.1,1.6c0,0.7,0,1.2,0.1,1.6c0.1,0.4,0.2,0.7,0.5,0.9
		c0.5,0.5,1,0.7,1.7,0.7c0.3,0,0.6,0,0.8-0.1c0.3-0.1,0.5-0.2,0.7-0.4c0.2-0.2,0.4-0.4,0.5-0.6C42.6,32.5,42.7,32.3,42.7,31.9
		 M37.6,33.9v-1.1h-2.9v-1.5h2.5v-1.1h-2.5v-1.5h2.9v-1.1h-4.1v6.3H37.6z M33.3,33.9L31,30.1l2.1-2.5h-1.5l-2.2,2.7v-2.7h-1.2v6.3
		h1.2V32l0.8-1l1.6,2.8H33.3z M26,31.7h-1.6l0.8-2.3L26,31.7z M28,33.9l-2.3-6.3h-1l-2.3,6.3h1.3l0.4-1.1h2.2l0.4,1.1H28z
		 M20.9,30.1c-0.2,0.2-0.4,0.2-0.6,0.2h-1.2v-1.7h1.2c0.3,0,0.5,0.1,0.6,0.2c0.2,0.2,0.2,0.4,0.2,0.6C21.2,29.8,21.1,30,20.9,30.1
		 M22.6,33.9l-1.4-2.7c0.2-0.1,0.3-0.1,0.4-0.2c0.1-0.1,0.3-0.2,0.4-0.4c0.1-0.1,0.2-0.3,0.3-0.5c0.1-0.2,0.1-0.4,0.1-0.6
		c0-0.3,0-0.5-0.1-0.7c-0.1-0.2-0.2-0.4-0.4-0.6c-0.2-0.2-0.4-0.3-0.6-0.4c-0.3-0.1-0.5-0.2-0.9-0.2h-2.5v6.3h1.2v-2.5H20l1.2,2.5
		H22.6z M15.7,30.1c-0.2,0.2-0.4,0.2-0.6,0.2h-1.2v-1.7h1.2c0.3,0,0.5,0.1,0.6,0.2c0.2,0.2,0.2,0.4,0.2,0.6
		C16,29.8,15.9,30,15.7,30.1 M17.4,33.9L16,31.2c0.2-0.1,0.3-0.1,0.4-0.2c0.1-0.1,0.3-0.2,0.4-0.4c0.1-0.1,0.2-0.3,0.3-0.5
		c0.1-0.2,0.1-0.4,0.1-0.6c0-0.3,0-0.5-0.1-0.7c-0.1-0.2-0.2-0.4-0.4-0.6c-0.2-0.2-0.4-0.3-0.6-0.4c-0.3-0.1-0.5-0.2-0.9-0.2h-2.5
		v6.3h1.2v-2.5h0.9l1.2,2.5H17.4z M10.5,31.7H8.9l0.8-2.3L10.5,31.7z M12.4,33.9l-2.3-6.3h-1l-2.3,6.3h1.3l0.4-1.1h2.2l0.4,1.1H12.4
		z M6.7,33.9v-6.3H5.5L3.8,31l-1.6-3.4H1v6.3h1.2v-3.6l1.2,2.4h0.8l1.2-2.4v3.6H6.7z"/>
	<path fill="#085496" d="M49,20.9v-1.1h-2.9v-1.5h2.5v-1.1h-2.5v-1.5H49v-1.1h-4.1v6.3H49z M41.5,18.8c0,0.3-0.1,0.4-0.2,0.6
		c-0.1,0.1-0.2,0.2-0.4,0.3c-0.1,0.1-0.3,0.1-0.5,0.1h-0.9v-4.1h0.9c0.2,0,0.4,0,0.5,0.1c0.1,0.1,0.3,0.2,0.4,0.3
		c0.1,0.1,0.1,0.1,0.1,0.2c0,0.1,0.1,0.2,0.1,0.3c0,0.1,0,0.3,0,0.5c0,0.2,0,0.4,0,0.6C41.6,18.2,41.6,18.6,41.5,18.8 M42.8,17.1
		c0-0.2,0-0.4-0.1-0.7c0-0.2-0.1-0.4-0.2-0.6c-0.1-0.2-0.2-0.4-0.4-0.6c-0.2-0.2-0.4-0.4-0.7-0.5c-0.3-0.1-0.6-0.1-0.9-0.1h-2.3v6.3
		h2.3c0.3,0,0.6,0,0.9-0.1c0.3-0.1,0.5-0.2,0.7-0.5c0.2-0.2,0.3-0.4,0.4-0.6c0.1-0.2,0.1-0.4,0.2-0.6c0-0.2,0.1-0.4,0.1-0.7v-0.7
		V17.1z M33.5,20.9v-1.1h-2.9v-1.5H33v-1.1h-2.5v-1.5h2.9v-1.1h-4.1v6.3H33.5z M26.5,12.6h-1.2l-0.6,1.5h0.8L26.5,12.6z M27.3,20.9
		v-1.1h-2.9v-1.5h2.5v-1.1h-2.5v-1.5h2.9v-1.1h-4.1v6.3H27.3z M21.7,14.7h-1.3l-1.3,4.1l-1.3-4.1h-1.3l2.1,6.3h0.9L21.7,14.7z
		 M15.1,14.7h-1.2v6.3h1.2V14.7z M10.3,17.2c-0.2,0.2-0.4,0.2-0.6,0.2H8.5v-1.7h1.2c0.3,0,0.5,0.1,0.6,0.2c0.2,0.2,0.2,0.4,0.2,0.6
		C10.6,16.8,10.5,17,10.3,17.2 M12.1,20.9l-1.4-2.7c0.2-0.1,0.3-0.1,0.4-0.2c0.1-0.1,0.3-0.2,0.4-0.4c0.1-0.1,0.2-0.3,0.3-0.5
		c0.1-0.2,0.1-0.4,0.1-0.6c0-0.3,0-0.5-0.1-0.7c-0.1-0.2-0.2-0.4-0.4-0.6c-0.2-0.2-0.4-0.3-0.6-0.4c-0.3-0.1-0.5-0.2-0.9-0.2H7.3
		v6.3h1.2v-2.5h0.9l1.2,2.5H12.1z M4,17.2c-0.2,0.2-0.4,0.2-0.7,0.2H2.2v-1.7h1.1c0.3,0,0.5,0.1,0.7,0.2c0.2,0.2,0.2,0.4,0.2,0.6
		C4.3,16.9,4.2,17.1,4,17.2 M5.4,15.9c-0.1-0.2-0.2-0.4-0.4-0.6c-0.2-0.2-0.4-0.3-0.7-0.4c-0.3-0.1-0.5-0.2-0.9-0.2H1v6.3h1.2v-2.4
		h1.2c0.3,0,0.6-0.1,0.9-0.2C4.6,18.3,4.8,18.2,5,18c0.2-0.2,0.3-0.4,0.4-0.6c0.1-0.2,0.1-0.5,0.1-0.8C5.5,16.3,5.5,16.1,5.4,15.9"
		/>
	<path fill="#085496" d="M47.4-0.4h-1.2l-0.6,1.5h0.8L47.4-0.4z M48.2,8V6.9h-2.9V5.4h2.5V4.3h-2.5V2.8h2.9V1.7h-4.1V8H48.2z
		 M43.2,2.8V1.7h-4.5v1.1h1.6V8h1.2V2.8H43.2z M37.8,1.7h-1.2V8h1.2V1.7z M35.4,5.4c-0.1-0.2-0.2-0.4-0.4-0.6
		c-0.1-0.1-0.3-0.2-0.5-0.3c-0.2-0.1-0.4-0.1-0.7-0.2l-0.7-0.1c-0.1,0-0.2,0-0.3-0.1c-0.1,0-0.2-0.1-0.2-0.2
		c-0.1-0.1-0.1-0.1-0.1-0.2c0-0.1,0-0.2,0-0.2c0-0.2,0.1-0.4,0.2-0.6c0.2-0.2,0.4-0.2,0.7-0.2c0.2,0,0.4,0,0.6,0.1
		c0.2,0.1,0.4,0.2,0.6,0.4l0.8-0.8c-0.3-0.3-0.6-0.5-0.9-0.6c-0.3-0.1-0.7-0.2-1.1-0.2c-0.3,0-0.6,0-0.9,0.1
		c-0.3,0.1-0.5,0.2-0.7,0.4c-0.2,0.2-0.3,0.4-0.4,0.6c-0.1,0.2-0.1,0.5-0.1,0.8c0,0.5,0.1,0.9,0.4,1.2c0.3,0.3,0.7,0.4,1.2,0.5
		l0.8,0.1c0.1,0,0.3,0.1,0.3,0.1c0.1,0,0.2,0.1,0.2,0.1c0.1,0.1,0.2,0.3,0.2,0.5c0,0.3-0.1,0.4-0.3,0.6c-0.2,0.1-0.5,0.2-0.8,0.2
		c-0.3,0-0.6,0-0.8-0.1c-0.3-0.1-0.5-0.2-0.7-0.4l-0.8,0.8c0.3,0.3,0.6,0.5,1,0.6C32.3,8,32.7,8,33.2,8c0.3,0,0.6,0,0.9-0.1
		c0.3-0.1,0.5-0.2,0.7-0.4c0.2-0.2,0.4-0.4,0.5-0.6c0.1-0.2,0.2-0.5,0.2-0.8C35.5,5.8,35.5,5.6,35.4,5.4 M28.8,4.2
		c-0.2,0.2-0.4,0.2-0.6,0.2H27V2.8h1.2c0.3,0,0.5,0.1,0.6,0.2c0.2,0.2,0.2,0.4,0.2,0.6C29.1,3.9,29,4.1,28.8,4.2 M30.5,8l-1.4-2.7
		c0.2-0.1,0.3-0.1,0.4-0.2c0.1-0.1,0.3-0.2,0.4-0.4c0.1-0.1,0.2-0.3,0.3-0.5c0.1-0.2,0.1-0.4,0.1-0.6c0-0.3,0-0.5-0.1-0.7
		c-0.1-0.2-0.2-0.4-0.4-0.6c-0.2-0.2-0.4-0.3-0.6-0.4c-0.3-0.1-0.5-0.2-0.9-0.2h-2.5V8H27V5.5h0.9L29.1,8H30.5z M24.7,8V6.9h-2.9
		V5.4h2.5V4.3h-2.5V2.8h2.9V1.7h-4.1V8H24.7z M19.9,1.7h-1.3l-1.3,4.1l-1.3-4.1h-1.3L16.9,8h0.9L19.9,1.7z M14.2,1.7H13V8h1.2V1.7z
		 M11.6,8V1.7h-1.2v3.8L7.9,1.7H6.8V8H8V4.1L10.5,8H11.6z M5.5,5.8V1.7H4.3v4.1c0,0.4-0.1,0.6-0.3,0.8C3.8,6.8,3.5,6.9,3.2,6.9
		c-0.3,0-0.6-0.1-0.8-0.3C2.2,6.4,2.1,6.1,2.1,5.8V1.7H0.9v4.1c0,0.3,0.1,0.6,0.2,0.9C1.2,7,1.4,7.2,1.6,7.4C1.8,7.6,2,7.8,2.3,7.9
		C2.6,8,2.9,8,3.2,8C3.5,8,3.8,8,4.1,7.9c0.3-0.1,0.5-0.3,0.7-0.4C5.1,7.2,5.2,7,5.3,6.7C5.5,6.5,5.5,6.2,5.5,5.8"/>
	<path fill="#005496" d="M201,69.3c0.1-0.3,0.2-0.6,0.4-0.8c0.3-0.3,0.5-0.5,0.8-0.5c0.3,0,0.6,0.1,0.8,0.3
		C202.6,68.7,201.9,69,201,69.3 M203.9,71.8c-0.1,0-0.2-0.2-0.4-0.4c-0.2-0.2-0.3-0.3-0.4-0.3c-0.1,0.1-0.3,0.3-0.4,0.4
		c-0.2,0.2-0.3,0.3-0.4,0.5c0.1,0.1,0.2,0.2,0.4,0.4c0.1,0.2,0.3,0.3,0.4,0.4C203.4,72.3,203.7,72.1,203.9,71.8L203.9,71.8z
		 M204.9,68.4c0.1-0.2,0.2-0.4,0.2-0.5c0-0.1,0-0.1,0-0.2c-0.1,0-0.2,0-0.3,0c-0.3,0-0.7-0.2-1.1-0.5c-0.4-0.3-0.8-0.5-1.1-0.5
		c-0.4,0-0.9,0.3-1.3,1c-0.3,0.5-0.6,1.1-0.7,1.6c-0.4,0.1-0.7,0.2-0.8,0.1c0,0-0.1,0-0.2,0c-0.3,0.6-0.4,0.9-0.5,1.1l0.1,0.1
		c0.6,0,0.9,0,1,0c-0.1,0.6-0.2,1-0.2,1.3l0.2,0.1c0-0.2,0.1-0.4,0.2-0.8c0.1-0.3,0.2-0.6,0.2-0.8c0.5-0.1,1.1-0.4,2-0.9
		c0.8-0.5,1.5-0.8,2.1-0.8C204.7,68.7,204.8,68.6,204.9,68.4 M199.9,69.6C199.9,69.5,199.9,69.5,199.9,69.6l-0.5-0.1
		c-0.3,0-0.6-0.1-0.8-0.3c-0.2-0.2-0.3-0.5-0.3-0.9c0-1.7,0-3.7,0-5.8l-0.1,0c-0.3,0.3-0.5,0.7-0.7,1.1c0,0.5,0,1.3,0,2.4
		c0,1.1,0,2.1,0,3c0,0.5,0.1,0.9,0.4,1.3c0.3,0.4,0.7,0.6,1.1,0.6h0.4C199.7,70.1,199.9,69.7,199.9,69.6 M195.3,68.3
		c-0.4,0-0.7-0.1-1-0.3c-0.1,0.1-0.2,0.3-0.2,0.6c0,0.3-0.1,0.5-0.1,0.5c-0.1,0.2-0.3,0.3-0.6,0.3c-0.3,0-0.6,0.1-0.9,0.1
		c-0.2,0.7-0.3,1.1-0.3,1.2l0.2,0c0.3,0,0.6-0.1,1-0.2c0.1-0.1,0.4-0.3,0.8-0.5c0.2-0.1,0.5-0.2,0.8-0.3c0.3,0,0.6-0.1,0.9-0.1
		c0.2-0.6,0.3-1,0.3-1.4C195.9,68.2,195.7,68.3,195.3,68.3 M192.6,69.5c-0.1,0-0.2,0-0.2,0c-0.5,0-0.8-0.1-0.8-0.2
		c0-0.1,0.1-0.3,0.2-0.5c0.2-0.2,0.2-0.4,0.2-0.5c0-0.3-0.1-0.5-0.4-0.7c-0.2-0.2-0.5-0.3-0.8-0.3c-0.3,0-0.6,0.2-0.8,0.5
		c-0.2,0.3-0.4,0.6-0.4,0.9l0,0c0,0,0.1,0,0.1,0c0.1,0,0.1,0,0.1,0c0.1,0,0.3,0.1,0.4,0.3c0.1,0.2,0.2,0.3,0.2,0.5
		c-0.2,0.1-0.4,0.1-0.7,0.1h-0.7c-0.1,0.5-0.2,0.9-0.3,1.2c0.1,0,0.3,0,0.4,0c0.4,0,0.7-0.1,1.1-0.2c0.4-0.2,0.6-0.2,0.6-0.2
		c0.2,0.3,0.5,0.5,1,0.5h0.6c0,0,0.1-0.2,0.2-0.6c0.1-0.2,0.1-0.5,0.1-0.6C192.8,69.5,192.7,69.5,192.6,69.5 M189.1,69.5
		c-0.9,0-1.3-0.4-1.3-1.2c0-0.4,0-0.6,0-0.6c0-0.2-0.2-0.3-0.4-0.3c-0.4,0-0.8,0.3-1.1,0.8c-0.1,0.1-0.3,0.6-0.7,1.5
		c-0.3,0.5-0.5,0.8-0.7,0.8c-0.3,0-0.6-0.3-0.8-0.8c-0.2-0.4-0.2-0.8-0.2-1.3c0-0.8,0.2-1.4,0.5-1.9c0.4-0.5,1-0.8,1.7-0.8
		c0.6,0,1.1,0,1.2,0c0.6-0.1,0.9-0.3,1-0.6c-0.3,0.2-0.7,0.3-1.2,0.3c-0.1,0-0.3,0-0.5,0c-0.2,0-0.4,0-0.5,0c-0.5,0-0.8,0.1-1.1,0.2
		c-1,0.6-1.5,1.5-1.5,2.8c0,0.7,0.1,1.3,0.3,1.9c0.2,0.9,0.6,1.3,1.1,1.3c0.2,0,0.5-0.3,0.7-0.8c0.2-0.5,0.4-1,0.6-1.5
		c0.3-0.5,0.6-0.8,1-0.8c0.1,0,0.2,0,0.2,0.1c0,0.6,0.1,1.1,0.3,1.4c0.2,0.4,0.6,0.6,1.2,0.6h0.3c0.2-0.4,0.4-0.8,0.3-1.1v-0.1
		H189.1z M187.7,62.7c-0.1,0.1-0.2,0.2-0.4,0.4c-0.2,0.2-0.3,0.3-0.4,0.4c-0.1-0.1-0.2-0.2-0.4-0.4c-0.2-0.2-0.3-0.3-0.4-0.3
		c-0.4,0.2-0.7,0.6-0.8,0.9c0.4,0.4,0.7,0.6,0.9,0.7c0.4-0.3,0.6-0.6,0.8-0.8c0.1,0,0.2,0.2,0.4,0.4c0.2,0.2,0.3,0.3,0.4,0.3
		c0.5-0.5,0.7-0.8,0.8-0.9C188.3,63.1,188,62.9,187.7,62.7 M178.5,68.3c-0.4,0-0.7-0.1-1-0.3c-0.1,0.1-0.2,0.3-0.2,0.6
		c0,0.3-0.1,0.5-0.1,0.5c-0.1,0.2-0.3,0.3-0.6,0.3c-0.3,0-0.6,0.1-0.9,0.1c-0.2,0.7-0.3,1.1-0.3,1.2l0.2,0c0.3,0,0.6-0.1,1-0.2
		c0.1-0.1,0.4-0.3,0.8-0.5c0.2-0.1,0.5-0.2,0.8-0.3c0.3,0,0.6-0.1,0.9-0.1c0.2-0.6,0.3-1,0.3-1.4C179.1,68.2,178.8,68.3,178.5,68.3
		 M175.8,69.5c-0.1,0-0.2,0-0.2,0c-0.5,0-0.8-0.1-0.8-0.2c0-0.1,0.1-0.3,0.2-0.5c0.2-0.2,0.2-0.4,0.2-0.5c0-0.3-0.1-0.5-0.4-0.7
		c-0.2-0.2-0.5-0.3-0.8-0.3c-0.3,0-0.6,0.2-0.8,0.5c-0.2,0.3-0.4,0.6-0.4,0.9l0,0c0,0,0.1,0,0.1,0c0.1,0,0.1,0,0.1,0
		c0.1,0,0.3,0.1,0.4,0.3c0.1,0.2,0.2,0.3,0.2,0.5c-0.2,0.1-0.4,0.1-0.7,0.1h-0.7c-0.1,0.5-0.2,0.9-0.3,1.2c0.1,0,0.3,0,0.4,0
		c0.4,0,0.7-0.1,1.1-0.2c0.4-0.2,0.6-0.2,0.6-0.2c0.2,0.3,0.5,0.5,1,0.5h0.6c0,0,0.1-0.2,0.2-0.6c0.1-0.2,0.1-0.5,0.1-0.6
		C175.9,69.5,175.9,69.5,175.8,69.5 M172.3,69.5c-1.1,0-1.6-0.6-1.6-1.9v-0.2h-0.1c-0.1,0.2-0.5,0.4-1,0.6c-0.5,0.2-0.8,0.5-0.9,0.7
		c-0.6,1.2-1,1.8-1.1,2c-0.4,0.7-0.9,1.3-1.4,1.6c-0.6,0.5-1.3,0.7-2.2,0.7c0,0.1,0.2,0.2,0.7,0.3c0.4,0,0.7,0.1,1,0.1
		c0.8,0,1.4-0.3,1.8-1c0.3-0.7,0.6-1.3,0.9-2c0.4-0.8,0.9-1.3,1.7-1.6c0,0.4,0.1,0.8,0.4,1.2c0.3,0.4,0.7,0.7,1,0.7h0.4h0.3
		c0.2-0.6,0.3-0.9,0.3-1.1C172.6,69.5,172.5,69.5,172.3,69.5 M171,64c-0.2,0.2-0.5,0.4-0.8,0.7c-0.3-0.3-0.6-0.5-0.8-0.7h-0.1
		c-0.1,0.1-0.3,0.3-0.4,0.4c-0.2,0.2-0.3,0.3-0.3,0.5c0.4,0.3,0.6,0.6,0.8,0.7c0.1-0.1,0.3-0.2,0.4-0.3l0.4-0.4
		c0.4,0.3,0.7,0.6,1,0.8c0.4-0.4,0.7-0.7,0.8-0.9C171.5,64.4,171.2,64.1,171,64 M162.1,70.4c1.3-0.7,1.9-1.6,1.9-2.8
		c0-0.2-0.1-0.5-0.2-0.8c-0.1-0.3-0.3-0.5-0.5-0.5c-0.2,0-0.5,0.2-0.8,0.6c-0.3,0.4-0.4,0.7-0.4,0.9c0,0.1,0,0.2,0.1,0.3
		c0.1,0.1,0.2,0.2,0.3,0.2c0.1,0,0.2,0,0.4-0.1c0.1-0.1,0.3-0.1,0.4-0.1c0,0.2,0.1,0.4,0.1,0.4v0.1c-0.4,0.5-1.1,0.9-2,1.2
		c-0.8,0.2-1.6,0.3-2.4,0.3c-0.6,0-1.2-0.1-1.7-0.3c-0.6-0.3-1-0.7-1-1.3c0-0.8,0.3-1.4,1-1.7c0.3-0.2,0.9-0.3,1.8-0.6
		c0.7-0.2,1.1-0.4,1.1-0.6c-0.2,0.1-0.9,0.3-2,0.6c-0.8,0.2-1.4,0.5-1.8,0.8c-0.5,0.5-0.8,1.2-0.8,2.1c0,0.8,0.3,1.4,0.9,1.8
		c0.5,0.3,1.2,0.5,2,0.5C159.9,71.3,161.1,71,162.1,70.4 M162.5,63.8l-0.1,0c-0.3,0.4-0.6,0.6-0.7,0.8c0,0.1,0,0.1,0,0.1
		c0,0,0.1,0.1,0.4,0.4c0.3,0.2,0.5,0.4,0.5,0.4c0.2-0.1,0.3-0.3,0.4-0.4c0.2-0.2,0.3-0.4,0.3-0.5C162.9,64.2,162.6,64,162.5,63.8
		 M149.8,72.3c-0.2-0.2-0.3-0.3-0.3-0.3c-0.1,0-0.3,0.1-0.5,0.3c-0.2,0.3-0.4,0.4-0.4,0.4v0.1c0.3,0.4,0.6,0.6,0.7,0.8
		c0.1-0.1,0.3-0.3,0.5-0.4c0.1-0.1,0.2-0.2,0.4-0.5C150,72.6,149.9,72.4,149.8,72.3 M150.4,70.4c0.4-0.3,0.8-0.8,1.1-1.6
		c0.1-0.4,0.2-0.7,0.2-0.9c0-0.3-0.1-0.9-0.4-1.7c-0.1,0.1-0.2,0.2-0.4,0.4c-0.1,0.3-0.2,0.4-0.3,0.5v0.6c0,0.2,0,0.4,0,0.5
		c0.1-0.1,0.1-0.1,0.2-0.2l0.1,0.4c0,0.2,0.1,0.3,0.1,0.4v0.1c-0.6,0.4-1.3,0.6-2.3,0.6h-0.5c-0.3,0.3-0.4,0.7-0.4,1.2
		c0.2,0,0.4,0,0.5,0C149.3,70.7,150,70.6,150.4,70.4 M148.3,69.5c-0.9,0-1.6,0.3-2,0.9c-0.3,0.5-0.4,1.2-0.5,2.2l-0.1,0.1l-0.2,0
		c-0.2,0-0.3-0.1-0.4-0.3c-0.1-0.2-0.1-0.3-0.1-0.5c0-0.3,0.2-0.9,0.5-1.7c0.4-0.8,0.5-1.2,0.5-1.2c0-0.1,0-0.1-0.1-0.1
		c0,0,0,0-0.1,0.1c-0.2,0.3-0.6,0.5-1.3,0.5h-0.3h-0.3c-0.2,0.6-0.3,1-0.3,1.2c0.6,0,1,0,1.2,0c-0.1,0.3-0.2,0.6-0.2,0.9
		c-0.1,0.3-0.1,0.6-0.1,0.9c0,0.3,0.1,0.7,0.3,0.9c0.2,0.3,0.5,0.5,0.8,0.5c0.1,0,0.2,0,0.4-0.1c0.1-0.1,0.2-0.2,0.2-0.3
		c0-0.1,0-0.2,0-0.4c0-0.2,0-0.3,0-0.4c0-0.6,0.2-1.1,0.5-1.4c0.3-0.3,0.8-0.5,1.5-0.6h0.2c0.2-0.6,0.4-1,0.4-1.2
		C148.6,69.5,148.5,69.5,148.3,69.5 M144.6,69.6C144.6,69.5,144.6,69.5,144.6,69.6l-0.5-0.1c-0.3,0-0.6-0.1-0.8-0.3
		c-0.2-0.2-0.3-0.5-0.3-0.9c0-1.7,0-3.7,0-5.8l-0.1,0c-0.3,0.3-0.5,0.7-0.7,1.1c0,0.5,0,1.3,0,2.4c0,1.1,0,2.1,0,3
		c0,0.5,0.1,0.9,0.4,1.3c0.3,0.4,0.7,0.6,1.1,0.6h0.4C144.5,70.1,144.6,69.7,144.6,69.6 M137.1,68.3c-0.4,0-0.7-0.1-1-0.3
		c-0.1,0.1-0.2,0.3-0.2,0.6c0,0.3-0.1,0.5-0.1,0.5c-0.1,0.2-0.3,0.3-0.6,0.3c-0.3,0-0.6,0.1-0.9,0.1c-0.2,0.7-0.3,1.1-0.3,1.2l0.2,0
		c0.3,0,0.6-0.1,1-0.2c0.1-0.1,0.4-0.3,0.8-0.5c0.2-0.1,0.5-0.2,0.8-0.3c0.3,0,0.6-0.1,0.9-0.1c0.2-0.6,0.3-1,0.3-1.4
		C137.7,68.2,137.4,68.3,137.1,68.3 M134.5,69.6c0,0-0.1,0-0.3,0c-0.6,0-0.9-0.1-1.1-0.4c-0.2-0.3-0.4-0.7-0.5-1h-0.1
		c-0.3,0.5-0.5,0.8-0.6,0.9c0.1,0.3,0.3,0.6,0.4,0.9c0.2,0.4,0.2,0.7,0.2,1c0,0.4-0.3,0.8-0.9,1.1c-0.5,0.3-1,0.4-1.5,0.4
		c-0.6,0-1-0.2-1.5-0.5s-0.6-0.8-0.6-1.4c0-0.4,0.1-0.7,0.4-1c0.1-0.2,0.4-0.4,0.8-0.7c0.4-0.3,0.6-0.5,0.8-0.8
		c0.2-0.3,0.4-0.6,0.7-0.9c0.3-0.4,0.5-0.7,0.6-1c-0.3-0.2-0.7-0.4-1-0.6c-0.1,0.2-0.2,0.3-0.4,0.5c-0.1,0.2-0.2,0.4-0.3,0.5
		c0.2,0.2,0.5,0.4,0.8,0.6v0.1c-0.1,0.3-0.4,0.7-0.9,1c-0.7,0.5-1.1,0.8-1.3,1.1c-0.4,0.5-0.6,1.2-0.6,2c0,0.7,0.2,1.3,0.7,1.7
		c0.4,0.4,1,0.6,1.7,0.6c0.8,0,1.5-0.3,2.1-0.9c0.6-0.6,0.9-1.2,1.1-2.1h1.1c0.1,0,0.1-0.2,0.2-0.6c0.1-0.3,0.1-0.5,0.1-0.5
		C134.5,69.6,134.5,69.6,134.5,69.6 M121,68.6c-0.2,0.1-0.7,0.3-1.5,0.6c0.2-0.5,0.4-0.9,0.7-1.2c0.4-0.5,0.8-0.8,1.2-0.8
		c0.2,0,0.5,0.2,1,0.5C122,68.1,121.5,68.3,121,68.6 M121.9,65.9c-0.4,0-0.7,0.1-1.1,0.4c-0.2,0.2-0.5,0.5-0.8,0.9
		c0.1-0.3,0.1-0.7,0.1-1c0-0.6-0.1-1.3-0.3-2.1c-0.2-0.7-0.3-1.3-0.5-2h-0.1c-0.6,0.7-0.9,1.7-0.9,3c0,0.3,0,0.8,0.1,1.4
		c0,0.6,0.1,1.1,0.1,1.4c0.2-0.4,0.2-0.8,0.2-1.4c0-0.1,0-0.3,0-0.6c0-0.3,0-0.5,0-0.6c0-0.6,0.1-1,0.2-1.4c0.4,1.4,0.6,2.5,0.6,3.2
		c0,0.8-0.2,1.5-0.5,2.1c-0.4,0.1-0.7,0.1-1.1,0.1h-0.2c-0.2,0.7-0.3,1-0.3,1.2l0.3,0.1c1.2,0,2.4-0.4,3.6-1.1
		c1.3-0.8,2-1.8,2.2-2.9C123,66.2,122.5,65.9,121.9,65.9 M117.9,69.7c0-0.1-0.1-0.2-0.3-0.2c-0.7-0.1-1.2,0.2-1.5,0.8
		c-0.3,0.5-0.7,1-1.3,1.4c-0.8,0.7-1.7,1-2.6,1c-0.3,0-0.4,0.1-0.4,0.2c0.4,0.2,0.9,0.3,1.5,0.3c0.9,0,1.5-0.2,1.9-0.7
		c0.3-0.4,0.6-0.8,0.9-1.2c0.3-0.4,0.8-0.7,1.4-0.6h0.2C117.8,70.3,117.9,70,117.9,69.7 M110.9,70.4c1.3-0.7,1.9-1.6,1.9-2.8
		c0-0.2-0.1-0.5-0.2-0.8c-0.1-0.3-0.3-0.5-0.5-0.5c-0.2,0-0.5,0.2-0.8,0.6c-0.3,0.4-0.4,0.7-0.4,0.9c0,0.1,0,0.2,0.1,0.3
		c0.1,0.1,0.2,0.2,0.3,0.2c0.1,0,0.2,0,0.4-0.1c0.1-0.1,0.3-0.1,0.4-0.1c0,0.2,0.1,0.4,0,0.4v0.1c-0.4,0.5-1.1,0.9-2,1.2
		c-0.8,0.2-1.6,0.3-2.4,0.3c-0.6,0-1.2-0.1-1.7-0.3c-0.6-0.3-1-0.7-1-1.3c0-0.8,0.3-1.4,1-1.7c0.3-0.2,0.9-0.3,1.8-0.6
		c0.7-0.2,1.1-0.4,1.1-0.6c-0.2,0.1-0.9,0.3-2,0.6c-0.8,0.2-1.4,0.5-1.8,0.8c-0.5,0.5-0.8,1.2-0.8,2.1c0,0.8,0.3,1.4,0.9,1.8
		c0.5,0.3,1.2,0.5,2,0.5C108.7,71.3,109.8,71,110.9,70.4 M111.2,63.8l-0.1,0c-0.3,0.4-0.6,0.6-0.7,0.8c0,0.1,0,0.1,0,0.1
		c0,0,0.1,0.1,0.4,0.4c0.3,0.2,0.5,0.4,0.5,0.4c0.2-0.1,0.3-0.3,0.4-0.4c0.2-0.2,0.3-0.4,0.3-0.5C111.7,64.2,111.4,64,111.2,63.8
		 M100,65.8c0.3,0.7,0.4,1.2,0.4,1.7c0,0.6-0.3,1.2-0.8,1.8c-0.3,0.4-0.9,0.8-1.6,1.2c-0.1,0-0.2,0.1-0.5,0.2
		c-0.2,0.1-0.4,0.2-0.5,0.3c0.3,0,0.5,0,0.7,0c1.1,0,1.9-0.4,2.5-1.2c0.5-0.7,0.7-1.6,0.7-2.7c0-0.6-0.1-1.5-0.4-2.6
		c-0.3-1.2-0.7-1.9-1.1-2.2c-0.4,0.6-0.6,1.5-0.6,2.5c0,0.3,0,0.9,0.1,1.6c0.1,0.7,0.1,1.2,0.1,1.6v0.4H99c0.2-0.4,0.3-1.2,0.3-2.4
		c0-0.2,0-0.4,0-0.7c0-0.3,0-0.5,0-0.7c0-0.2,0-0.3,0-0.5C99.5,64.7,99.8,65.3,100,65.8 M95.3,70.6c0.6-0.2,1.1-0.7,1.5-1.5
		c0.3-0.7,0.5-1.4,0.5-2.1c0-0.4-0.2-1.3-0.6-2.5c-0.4-1.3-0.7-2.1-0.9-2.2c-0.4,0.6-0.6,1.5-0.6,2.4c0,0.4,0,0.9,0.1,1.7
		c0.1,0.8,0.1,1.3,0.1,1.7c0,0.2,0,0.2,0,0.2c0,0,0.1,0,0.1,0c0.1-0.4,0.1-1,0.1-1.5c0-0.3,0-0.7,0-1.2c0-0.6,0-1,0-1.2l0,0
		c0.3,0.6,0.5,1.1,0.8,1.7c0.3,0.7,0.4,1.3,0.4,1.8c0,0.4-0.2,0.8-0.7,1.2c-0.4,0.3-0.9,0.4-1.4,0.4h-0.2c0,0,0,0.2-0.1,0.5
		c0,0.2-0.1,0.4,0,0.5l0,0.2C94.8,70.7,95.1,70.7,95.3,70.6 M94.5,69.5c-0.5,0-0.8-0.2-1-0.5c-0.1-0.2-0.2-0.5-0.3-1
		c-0.1-0.5-0.1-0.9-0.1-1H93c-0.1,0.3-0.4,1-0.8,2.3c-0.3,0.9-0.6,1.5-1,1.8c-0.6,0.5-1.4,0.7-2.6,0.7h-0.3v0.1
		c0.3,0.1,0.6,0.2,0.9,0.3c0.3,0.1,0.7,0.2,0.9,0.2c0.7,0,1.3-0.2,1.6-0.6c0.3-0.3,0.5-0.8,0.7-1.5c0.3-0.9,0.4-1.4,0.5-1.6
		c0,0.6,0.1,1.1,0.2,1.3c0.2,0.4,0.5,0.7,1.1,0.7h0.4c0-0.1,0.1-0.3,0.1-0.5c0.1-0.2,0.1-0.4,0.1-0.5l0-0.2H94.5z M88.5,67.9
		c-0.1-0.3-0.3-0.4-0.5-0.4c-0.1,0-0.3,0.2-0.6,0.6c-0.2,0.4-0.4,0.7-0.4,0.8c0,0.1,0,0.2,0.1,0.3c0.1,0.1,0.1,0.2,0.2,0.2
		c0.1,0,0.2,0,0.3-0.1c0.2-0.1,0.2-0.2,0.3-0.2c0.1,0.2,0.1,0.3,0.1,0.4c0,0,0,0.1,0,0.1c-0.2,0.7-0.8,1.4-1.7,1.9
		c-0.8,0.5-1.6,0.7-2.4,0.7v0.1c0.1,0,0.3,0.1,0.7,0.1c0.3,0.1,0.5,0.1,0.7,0.1c1.4,0,2.3-0.5,2.7-1.6c0.3-0.7,0.4-1.1,0.5-1.1
		c0.2-0.4,0.2-0.8,0.2-1.1C88.6,68.3,88.6,68.1,88.5,67.9 M82.5,70.6c0.6-0.2,1.1-0.7,1.5-1.5c0.3-0.7,0.5-1.4,0.5-2.1
		c0-0.4-0.2-1.3-0.6-2.5c-0.4-1.3-0.7-2.1-0.9-2.2c-0.4,0.6-0.6,1.5-0.6,2.4c0,0.4,0,0.9,0.1,1.7c0.1,0.8,0.1,1.3,0.1,1.7
		c0,0.2,0,0.2,0,0.2c0,0,0.1,0,0.1,0c0.1-0.4,0.1-1,0.1-1.5c0-0.3,0-0.7,0-1.2c0-0.6,0-1,0-1.2l0,0c0.3,0.6,0.5,1.1,0.8,1.7
		c0.3,0.7,0.4,1.3,0.4,1.8c0,0.4-0.2,0.8-0.7,1.2c-0.4,0.3-0.9,0.4-1.4,0.4h-0.2c0,0,0,0.2-0.1,0.5c0,0.2-0.1,0.4,0,0.5l0,0.2
		C82,70.7,82.3,70.7,82.5,70.6 M81.7,69.5c-0.9,0-1.3-0.4-1.3-1.2c0-0.4,0-0.6,0-0.6c0-0.2-0.2-0.3-0.4-0.3c-0.4,0-0.8,0.3-1.1,0.8
		c-0.1,0.1-0.3,0.6-0.7,1.5c-0.3,0.5-0.5,0.8-0.7,0.8c-0.3,0-0.6-0.3-0.8-0.8c-0.2-0.4-0.2-0.8-0.2-1.3c0-0.8,0.2-1.4,0.5-1.9
		c0.4-0.5,1-0.8,1.7-0.8c0.6,0,1.1,0,1.2,0c0.6-0.1,0.9-0.3,1-0.6c-0.3,0.2-0.7,0.3-1.2,0.3c-0.1,0-0.3,0-0.5,0c-0.2,0-0.4,0-0.5,0
		c-0.5,0-0.8,0.1-1.1,0.2c-1,0.6-1.5,1.5-1.5,2.8c0,0.7,0.1,1.3,0.3,1.9c0.2,0.9,0.6,1.3,1.1,1.3c0.2,0,0.5-0.3,0.7-0.8
		c0.2-0.5,0.4-1,0.6-1.5c0.3-0.5,0.6-0.8,1-0.8c0.1,0,0.2,0,0.2,0.1c0,0.6,0.1,1.1,0.3,1.4c0.2,0.4,0.6,0.6,1.2,0.6h0.3
		c0.2-0.4,0.4-0.8,0.3-1.1v-0.1H81.7z M80.3,62.7c-0.1,0.1-0.2,0.2-0.4,0.4c-0.2,0.2-0.3,0.3-0.4,0.4c-0.1-0.1-0.2-0.2-0.4-0.4
		c-0.2-0.2-0.3-0.3-0.4-0.3c-0.4,0.2-0.7,0.6-0.8,0.9c0.4,0.4,0.7,0.6,0.9,0.7c0.4-0.3,0.6-0.6,0.8-0.8c0.1,0,0.2,0.2,0.4,0.4
		c0.2,0.2,0.3,0.3,0.4,0.3c0.5-0.5,0.7-0.8,0.8-0.9C80.9,63.1,80.6,62.9,80.3,62.7"/>
</g>
<line fill="none" stroke="#085496" stroke-width="1.1022" x1="60.4" y1="0.5" x2="60.4" y2="34.6"/>
<line fill="none" stroke="#085496" stroke-width="1.1841" x1="242.8" y1="68.3" x2="210.9" y2="68.3"/>
<line fill="none" stroke="#085496" stroke-width="1.1841" x1="70.1" y1="68.3" x2="38.2" y2="68.3"/>
<line fill="none" stroke="#085496" stroke-width="1.1022" x1="214.2" y1="0.5" x2="214.2" y2="34.6"/>
<g>
	<path fill="#005496" d="M271.3,31.7c0.1-0.1,0.3-0.2,0.7-0.3c0.5-0.1,0.8-0.3,1-0.3c0.4-0.2,0.8-0.5,1.1-0.9
		c0.3-0.4,0.4-0.6,0.5-0.7c0.1-0.2,0.2-0.5,0.2-0.8c0-0.4-0.1-1-0.4-1.6c-0.3-0.8-0.5-1.3-0.6-1.6c-0.5,0.4-0.9,0.8-1.1,1.4
		c-0.2,0.4-0.3,0.9-0.3,1.6c0,0.5,0,1.1-0.1,1.6l0.3-0.2c0.1-1.5,0.2-2.4,0.5-2.5c0.2,0.4,0.3,0.8,0.5,1.2c0.2,0.5,0.3,0.9,0.2,1.2
		v0.1c-0.9,0.2-1.7,0.5-2.3,1.1c-0.6,0.5-1,1.1-1.2,1.8c-0.7,0.4-1.9,0.6-3.5,0.6c0,0.1-0.2,0.3-0.3,0.6c-0.1,0.2-0.2,0.4-0.3,0.6
		l0.5,0c0.6,0,1.2,0,1.8-0.2c0.6-0.2,1.2-0.4,1.7-0.6c0.8-0.2,1.7-0.4,2.6-0.4c0.5-0.4,0.9-0.9,1-1.4c-0.4,0-0.9,0.1-1.5,0.1
		C271.7,32,271.3,31.9,271.3,31.7C271.3,31.8,271.3,31.7,271.3,31.7 M267.3,33.4c0-0.1-0.2-0.2-0.4-0.2c-1-0.1-1.8,0.2-2.2,0.8
		c-0.4,0.5-1,1-1.9,1.4c-1.2,0.7-2.5,1-3.7,1c-0.4,0-0.6,0.1-0.6,0.2c0.6,0.2,1.3,0.3,2.1,0.3c1.2,0,2.2-0.2,2.8-0.7
		c0.4-0.4,0.8-0.8,1.2-1.2c0.5-0.4,1.1-0.7,2-0.6h0.2C267.1,34.1,267.3,33.7,267.3,33.4 M254.6,29.6c0.4,0.7,0.6,1.2,0.6,1.7
		c0,0.6-0.4,1.2-1.2,1.8c-0.5,0.4-1.3,0.8-2.3,1.2c-0.1,0-0.4,0.1-0.8,0.2c-0.3,0.1-0.6,0.2-0.7,0.3c0.4,0,0.7,0,1,0
		c1.6,0,2.8-0.4,3.6-1.2c0.7-0.7,1-1.6,1-2.7c0-0.6-0.2-1.5-0.6-2.6c-0.5-1.2-1-1.9-1.5-2.2c-0.6,0.6-0.8,1.5-0.8,2.5
		c0,0.3,0,0.9,0.1,1.6c0.1,0.7,0.1,1.2,0.1,1.6v0.4h0.1c0.3-0.4,0.4-1.2,0.4-2.4c0-0.2,0-0.4,0-0.7c0-0.3,0-0.5,0-0.7
		c0-0.2,0-0.3,0-0.5C253.9,28.5,254.3,29,254.6,29.6 M244,34.1c0.4-0.2,0.7-0.7,1.1-1.5c0.1-0.3,0.2-0.6,0.2-0.9
		c0-0.6-0.2-1.2-0.6-2c-0.4-0.6-0.8-1.2-1.1-1.9h-0.1c-0.4,0.6-0.6,1.5-0.6,2.6c0,0.3,0,0.6,0,1c0,0.5,0.1,0.9,0.1,1l0.2,0.1
		c0.1-0.3,0.2-0.7,0.2-1.2v-0.5c0-0.3,0-0.5,0-0.7c0-0.2,0.1-0.3,0.1-0.3c0.2,0.3,0.5,0.8,0.8,1.4c0.3,0.7,0.5,1.1,0.5,1.4
		c0,0.5-0.8,0.8-2.4,0.8h-0.7c0,0.1-0.1,0.2-0.2,0.5c-0.1,0.2-0.1,0.4-0.1,0.5l0,0.2h0.4C242.8,34.5,243.6,34.3,244,34.1
		 M247.3,26.5c0.6-0.9,0.9-1.3,0.9-1.5c0-0.1-0.1-0.1-0.2-0.1c0,0-0.1,0-0.1,0.1c-0.1,0.1-0.1,0.1-0.1,0.1c-1.2,0.8-2.5,1.4-3.9,1.8
		c-0.3,0.1-0.9,0.2-2,0.5c-0.8,0.2-1.5,0.4-1.9,0.6l0.1,0.1c2.2-0.1,4-0.4,5.3-1c0.7-0.3,1.3-0.6,1.6-0.8c-0.7,0.8-1,1.3-1,1.6
		c0,0.1,0,0.1,0.1,0.1C246.6,27.6,246.9,27,247.3,26.5 M241.5,33.3c-0.2,0-0.5,0-0.7-0.1c-0.2-0.1-0.3-0.2-0.3-0.3
		c0.1-0.3,0.2-0.6,0.2-0.8c0-0.1,0-0.1-0.1-0.1c-0.1,0-0.2,0.1-0.4,0.4c-0.2,0.4-0.3,0.6-0.4,0.7c-0.2,0.2-0.5,0.4-0.8,0.3
		c-0.1,0-0.3,0-0.4-0.1c0.2-0.4,0.4-0.8,0.6-1.1c0,0,0-0.1-0.1-0.1c0,0-0.1,0-0.2,0l-0.7,0.9c-0.3,0.3-0.7,0.4-1.3,0.4h-0.4
		c0,0.1-0.1,0.3-0.3,0.6c-0.2,0.2-0.2,0.4-0.3,0.6c0.2,0,0.4,0,0.6,0c0.1,0,0.2,0,0.4,0c0.2,0,0.3,0,0.4,0c0.4,0,0.7,0,0.9,0.1
		c0.3,0,0.6,0,0.9-0.1c0.1-0.1,0.3-0.1,0.4-0.3c0.1-0.1,0.2-0.1,0.2-0.1c0.1,0.1,0.2,0.2,0.2,0.2c0.4,0.2,0.7,0.3,1.1,0.3h0.4
		c0.3-0.6,0.5-1,0.5-1.2H241.5z M239.3,29.5c-0.7,0.4-1.1,0.6-1.1,0.7c-0.1-0.1-0.3-0.2-0.6-0.4c-0.2-0.1-0.4-0.3-0.5-0.4h-0.1
		c-0.7,0.4-1.1,0.7-1.2,0.8c0.1,0.1,0.3,0.2,0.6,0.4c0.2,0.2,0.4,0.3,0.6,0.4c0.5-0.3,0.9-0.5,1.2-0.7c0.1,0.1,0.3,0.2,0.6,0.3
		c0.2,0.1,0.4,0.2,0.6,0.3c0.5-0.3,0.9-0.5,1.2-0.7l0.1-0.1C240.2,30,239.8,29.8,239.3,29.5 M238.2,27.8c-0.5,0.3-0.9,0.6-1.1,0.8
		c0,0.2,0.1,0.3,0.4,0.5c0,0,0.3,0.2,0.7,0.4c0.5-0.4,1-0.7,1.2-0.9C238.8,28.2,238.4,28,238.2,27.8 M237,33.3h-0.5
		c-0.5,0-0.9-0.1-1.3-0.3c-0.4-0.2-0.7-0.4-0.8-0.7c-0.4,0.2-0.7,0.6-1,1c0.6,0.5,0.9,1.1,0.9,1.7c0,0.4-0.4,0.7-1.1,1
		c-0.7,0.2-1.3,0.4-1.9,0.4c-0.9,0-1.6-0.2-2.2-0.5c-0.7-0.4-1-0.8-1-1.4c0-0.9,0.5-1.6,1.5-2.2c0.4-0.2,1.3-0.6,2.7-1.2
		c1-0.4,1.4-0.8,1.4-1.1v-0.2c-0.5,0.5-1.4,1-2.6,1.4c-1.3,0.5-2.2,0.9-2.6,1.2c-0.8,0.6-1.2,1.4-1.2,2.5c0,0.8,0.3,1.5,1,2
		c0.7,0.6,1.6,0.8,2.8,0.8c1.2,0,2.2-0.3,3-1c0.8-0.6,1.2-1.3,1.4-2.1c0.3,0,0.8,0,1.3,0L237,33.3z"/>
	<path fill="#005496" d="M273.9,17.6c0.4,0.7,0.6,1.2,0.6,1.7c0,0.6-0.4,1.2-1.2,1.8c-0.5,0.4-1.3,0.8-2.3,1.2
		c-0.1,0-0.4,0.1-0.8,0.2c-0.3,0.1-0.6,0.2-0.7,0.3c0.4,0,0.7,0,1,0c1.6,0,2.8-0.4,3.6-1.2c0.7-0.7,1-1.6,1-2.7
		c0-0.6-0.2-1.5-0.6-2.6c-0.5-1.2-1-1.9-1.5-2.2c-0.6,0.6-0.8,1.5-0.8,2.5c0,0.3,0,0.9,0.1,1.6c0.1,0.7,0.1,1.2,0.1,1.6v0.4h0.1
		c0.3-0.4,0.4-1.2,0.4-2.4c0-0.2,0-0.4,0-0.7c0-0.3,0-0.5,0-0.7c0-0.2,0-0.3,0-0.5C273.2,16.5,273.5,17,273.9,17.6 M263.7,19.6
		c-0.8,0-1.9-0.2-3.4-0.5c0.3-0.2,0.8-0.4,1.6-0.7c0.7-0.2,1.2-0.5,1.5-0.7c0.5-0.4,0.7-1,0.7-1.7c0-0.4-0.1-0.9-0.3-1.4
		c-0.2-0.4-0.3-0.9-0.5-1.3l-0.2-0.1c-1,1.2-1.5,2.6-1.6,4.1l0.1,0.1c0.2-0.2,0.4-0.6,0.4-1.2c0.1-0.5,0.2-0.9,0.4-1.2
		c0.1,0.4,0.3,0.7,0.4,1.1c0.2,0.4,0.2,0.8,0.2,1.1c0,0.1-0.1,0.2-0.4,0.3c-0.2,0.1-0.4,0.1-0.6,0.1c-1.7,0.4-2.8,1.3-3.4,2.6
		c0.9,0,1.7,0.1,2.5,0.3c-0.7,0.3-1.5,0.5-2.6,0.6c-0.5,0-1.5,0.1-2.8,0.1c-0.4,0.8-0.6,1.1-0.6,1.2c0.2,0,0.4,0,0.6,0
		c1.4,0,2.5-0.1,3.4-0.3c0.3-0.1,0.9-0.3,2-0.7c0.8-0.3,1.6-0.5,2.4-0.6c0.9-0.7,1.3-1.2,1.3-1.4C264.6,19.6,264.2,19.6,263.7,19.6
		 M258.6,16.1c-0.7,0.4-1.1,0.7-1.2,0.8c0.5,0.4,0.9,0.7,1.1,0.8c0.4-0.2,0.8-0.5,1.2-0.9C259.3,16.5,258.9,16.3,258.6,16.1
		 M256.6,21.3c0,0,0-0.1-0.1-0.1h-0.6c-0.5,0-0.9-0.1-1.2-0.3c-0.3-0.2-0.5-0.5-0.5-0.9c0-1.7,0-3.7,0-5.8l-0.1,0
		c-0.4,0.3-0.7,0.7-1,1.1c0,0.5,0,1.3,0,2.4c0,1.1,0,2.1,0,3c0,0.5,0.2,0.9,0.5,1.3c0.4,0.4,1,0.6,1.6,0.6h0.6
		C256.4,21.8,256.6,21.4,256.6,21.3 M243.9,20.2c-0.9,0.3-1.6,0.5-2.2,0.6c0.8-1.3,1.6-2,2.5-2c0.4,0,0.8,0.1,1.3,0.4
		C245.4,19.5,244.9,19.9,243.9,20.2 M244.6,20.8c1.2-0.7,1.9-1.5,1.9-2.3c0-0.3-0.2-0.6-0.5-0.8c-0.3-0.2-0.7-0.2-1.2-0.2
		c-1.3,0-2.5,1.1-3.8,3.4c-0.4,0.2-0.7,0.3-0.8,0.3c-0.1,0-0.3,0-0.6,0c-0.1,0.2-0.2,0.4-0.2,0.6c-0.1,0.2-0.1,0.4-0.1,0.6
		c0.4,0,0.7,0,0.9-0.1c0.1-0.1,0.3-0.1,0.4-0.2c-0.1,0.5-0.1,0.7-0.1,0.8c0,0.2,0.1,0.3,0.2,0.3c0.1-0.1,0.2-0.3,0.3-0.6
		c0.1-0.3,0.1-0.5,0.2-0.6C242.4,21.9,243.6,21.5,244.6,20.8 M239.2,22.4h0.4c0,0,0.1-0.1,0.2-0.4c0.1-0.3,0.2-0.5,0.2-0.6
		c0-0.1-0.1-0.2-0.4-0.2c-0.3,0-0.6,0-0.6-0.1c0.2-0.5,0.3-0.9,0.3-1.1c0-0.1,0-0.1-0.1-0.1c-0.3,0.4-0.6,0.7-0.7,0.8
		c-0.3,0.3-0.7,0.4-1.1,0.4c0,0-0.1,0-0.2,0c-0.1,0-0.2,0-0.3,0c-0.3,0.5-0.4,0.8-0.5,1.2c0.5,0,0.7,0,0.7,0c0.5,0,0.9,0,1.2-0.1
		c0.1,0.1,0.3,0.1,0.7,0.1H239.2z M236.8,21.2c-1.3,0-1.9-0.4-1.9-1.2c0-0.4,0-0.6,0-0.6c-0.1-0.2-0.3-0.3-0.6-0.3
		c-0.6,0-1.1,0.3-1.6,0.8c-0.1,0.1-0.5,0.6-1.1,1.5c-0.4,0.5-0.7,0.8-1,0.8c-0.5,0-0.9-0.3-1.2-0.8c-0.2-0.4-0.3-0.8-0.3-1.3
		c0-0.8,0.3-1.4,0.8-1.9c0.6-0.5,1.4-0.8,2.5-0.8c0.9,0,1.5,0,1.8,0c0.8-0.1,1.3-0.3,1.4-0.6c-0.4,0.2-1,0.3-1.7,0.3
		c-0.2,0-0.4,0-0.8,0c-0.4,0-0.6,0-0.8,0c-0.7,0-1.2,0.1-1.6,0.2c-1.4,0.6-2.1,1.5-2.1,2.8c0,0.7,0.1,1.3,0.4,1.9
		c0.4,0.9,0.9,1.3,1.6,1.3c0.4,0,0.7-0.3,1-0.8c0.3-0.5,0.6-1,0.9-1.5c0.4-0.5,0.9-0.8,1.4-0.8c0.2,0,0.3,0,0.4,0.1
		c0,0.6,0.1,1.1,0.4,1.4c0.3,0.4,0.9,0.6,1.7,0.6h0.5c0.3-0.4,0.5-0.8,0.5-1.1v-0.1H236.8z M234.8,14.4c-0.1,0.1-0.3,0.2-0.5,0.4
		c-0.2,0.2-0.4,0.3-0.6,0.4c-0.1-0.1-0.3-0.2-0.6-0.4c-0.2-0.2-0.4-0.3-0.6-0.3c-0.5,0.2-1,0.6-1.2,0.9c0.6,0.4,1.1,0.6,1.3,0.7
		c0.5-0.3,0.9-0.6,1.2-0.8c0.1,0,0.3,0.2,0.6,0.4c0.3,0.2,0.5,0.3,0.6,0.3c0.7-0.5,1.1-0.8,1.1-0.9
		C235.6,14.8,235.1,14.6,234.8,14.4"/>
	<path fill="#005496" d="M273.9,5.5c0.4,0.7,0.6,1.2,0.6,1.7c0,0.6-0.4,1.2-1.2,1.8c-0.5,0.4-1.3,0.8-2.3,1.2
		c-0.1,0-0.4,0.1-0.8,0.2c-0.3,0.1-0.6,0.2-0.7,0.3c0.4,0,0.7,0,1,0c1.6,0,2.8-0.4,3.6-1.2c0.7-0.7,1-1.6,1-2.7
		c0-0.6-0.2-1.5-0.6-2.6c-0.5-1.2-1-1.9-1.5-2.2c-0.6,0.6-0.8,1.5-0.8,2.5c0,0.3,0,0.9,0.1,1.6c0.1,0.7,0.1,1.2,0.1,1.6v0.4h0.1
		c0.3-0.4,0.4-1.2,0.4-2.4c0-0.2,0-0.4,0-0.7c0-0.3,0-0.5,0-0.7c0-0.2,0-0.3,0-0.5C273.2,4.5,273.5,5,273.9,5.5 M260.5,11.2
		c-0.7,0.4-1.1,0.7-1.2,0.8c0.5,0.4,0.9,0.7,1.1,0.8c0.4-0.2,0.8-0.5,1.2-0.9C261.2,11.6,260.8,11.4,260.5,11.2 M263.7,7.6
		c-0.8,0-1.9-0.2-3.4-0.5c0.3-0.2,0.8-0.4,1.6-0.7c0.7-0.2,1.2-0.5,1.5-0.7c0.5-0.4,0.7-1,0.7-1.7c0-0.4-0.1-0.9-0.3-1.4
		c-0.2-0.4-0.3-0.9-0.5-1.3l-0.2-0.1c-1,1.2-1.5,2.6-1.6,4.1l0.1,0.1c0.2-0.2,0.4-0.6,0.4-1.2c0.1-0.5,0.2-0.9,0.4-1.2
		c0.1,0.4,0.3,0.7,0.4,1.1c0.2,0.4,0.2,0.8,0.2,1.1c0,0.1-0.1,0.2-0.4,0.3c-0.2,0.1-0.4,0.1-0.6,0.1c-1.7,0.4-2.8,1.3-3.4,2.6
		c0.9,0,1.7,0.1,2.5,0.3c-0.7,0.3-1.5,0.5-2.6,0.6c-0.5,0-1.5,0.1-2.8,0.1c-0.4,0.8-0.6,1.1-0.6,1.2c0.2,0,0.4,0,0.6,0
		c1.4,0,2.5-0.1,3.4-0.3c0.3-0.1,0.9-0.3,2-0.7c0.8-0.3,1.6-0.5,2.4-0.6c0.9-0.7,1.3-1.2,1.3-1.4C264.6,7.5,264.2,7.6,263.7,7.6
		 M256.6,9.3c0,0,0-0.1-0.1-0.1h-0.6c-0.5,0-0.9-0.1-1.2-0.3c-0.3-0.2-0.5-0.5-0.5-0.9c0-1.7,0-3.7,0-5.8l-0.1,0
		c-0.4,0.3-0.7,0.7-1,1.1c0,0.5,0,1.3,0,2.4c0,1.1,0,2.1,0,3c0,0.5,0.2,0.9,0.5,1.3c0.4,0.4,1,0.6,1.6,0.6h0.6
		C256.4,9.8,256.6,9.4,256.6,9.3 M245.8,8c-0.6,0-1.1-0.1-1.5-0.3c-0.2,0.1-0.3,0.3-0.3,0.6c-0.1,0.3-0.1,0.5-0.2,0.5
		c-0.1,0.2-0.4,0.3-0.8,0.3c-0.4,0-0.9,0.1-1.4,0.1c-0.3,0.7-0.4,1.1-0.5,1.2l0.3,0c0.5,0,0.9-0.1,1.4-0.2c0.2-0.1,0.6-0.3,1.2-0.5
		c0.3-0.1,0.7-0.2,1.2-0.3c0.4,0,0.9-0.1,1.3-0.1c0.3-0.6,0.4-1,0.5-1.4C246.7,7.9,246.3,8,245.8,8 M241.9,9.2c-0.1,0-0.2,0-0.3,0
		c-0.8,0-1.2-0.1-1.2-0.2c0-0.1,0.1-0.3,0.3-0.5c0.2-0.2,0.3-0.4,0.3-0.5c0-0.3-0.2-0.5-0.6-0.7c-0.4-0.2-0.7-0.3-1.2-0.3
		c-0.4,0-0.8,0.2-1.2,0.5c-0.3,0.3-0.5,0.6-0.6,0.9l0.1,0c0,0,0.1,0,0.2,0c0.1,0,0.1,0,0.2,0c0.2,0,0.4,0.1,0.6,0.3
		c0.2,0.2,0.3,0.3,0.3,0.5c-0.2,0.1-0.6,0.1-1,0.1h-1.1c-0.2,0.5-0.3,0.9-0.5,1.2c0.2,0,0.4,0,0.5,0c0.5,0,1.1-0.1,1.7-0.2
		c0.6-0.2,0.9-0.2,0.9-0.2c0.3,0.3,0.7,0.5,1.4,0.5h0.8c0,0,0.1-0.2,0.3-0.6c0.1-0.2,0.2-0.5,0.2-0.6C242.1,9.2,242,9.2,241.9,9.2
		 M236.8,9.2c-1.3,0-1.9-0.4-1.9-1.2c0-0.4,0-0.6,0-0.6c-0.1-0.2-0.3-0.3-0.6-0.3c-0.6,0-1.1,0.3-1.6,0.8c-0.1,0.1-0.5,0.6-1.1,1.5
		c-0.4,0.5-0.7,0.8-1,0.8c-0.5,0-0.9-0.3-1.2-0.8c-0.2-0.4-0.3-0.8-0.3-1.3c0-0.8,0.3-1.4,0.8-1.9c0.6-0.5,1.4-0.8,2.5-0.8
		c0.9,0,1.5,0,1.8,0c0.8-0.1,1.3-0.3,1.4-0.6c-0.4,0.2-1,0.3-1.7,0.3c-0.2,0-0.4,0-0.8,0c-0.4,0-0.6,0-0.8,0c-0.7,0-1.2,0.1-1.6,0.2
		c-1.4,0.6-2.1,1.5-2.1,2.8c0,0.7,0.1,1.3,0.4,1.9c0.4,0.9,0.9,1.3,1.6,1.3c0.4,0,0.7-0.3,1-0.8c0.3-0.5,0.6-1,0.9-1.5
		c0.4-0.5,0.9-0.8,1.4-0.8c0.2,0,0.3,0,0.4,0.1c0,0.6,0.1,1.1,0.4,1.4c0.3,0.4,0.9,0.6,1.7,0.6h0.5c0.3-0.4,0.5-0.8,0.5-1.1V9.2
		H236.8z M234.8,2.4c-0.1,0.1-0.3,0.2-0.5,0.4c-0.2,0.2-0.4,0.3-0.6,0.4c-0.1-0.1-0.3-0.2-0.6-0.4c-0.2-0.2-0.4-0.3-0.6-0.3
		c-0.5,0.2-1,0.6-1.2,0.9c0.6,0.4,1.1,0.6,1.3,0.7c0.5-0.3,0.9-0.6,1.2-0.8c0.1,0,0.3,0.2,0.6,0.4c0.3,0.2,0.5,0.3,0.6,0.3
		c0.7-0.5,1.1-0.8,1.1-0.9C235.6,2.8,235.2,2.6,234.8,2.4"/>
</g>
</svg>
