<svg viewBox="73 -1 130 37" xmlns="http://www.w3.org/2000/svg">
	<path fill="#085496" d="M101.5,1.4c-0.1-0.5,0.3-0.6,0.5-0.6c3.8,0,8.1,0,11.8-0.1c3.9-0.1,7.3,0.3,9.7,2c1.5,1.1,2.8,2.7,3,4.9
	c0.4,4.1-1.6,7-3.8,8.7c-1.7,1.3-4.1,2.3-7,2.5c-0.8,0-2.6,0.2-2.6-0.4c0-0.6,1.3-0.4,2-0.5c2.3-0.2,4.1-1,5.4-2.2
	c1.6-1.6,2.7-4.3,1.8-7.6c-0.6-2-2.1-3.9-3.8-4.9c-2-1.3-3.9-1.9-7.2-1.6c-0.7,0.1-1.7,0.2-2,0.8c-0.5,0.8-0.4,2.3-0.5,3.6
	c-0.2,3.9-0.1,8.4-0.1,12.1c0,5.6-0.8,9.6-3.8,12.5c-2.7,2.7-7.1,4.3-12.2,3.8c-2.4-0.2-4.5-0.7-6.3-1.7c-1.7-1-3.2-2.2-4.2-3.9
	c-2.5-4.1-1.9-10.7-1.9-17.2c0-2.2,0.1-4.4,0-6.4c-0.1-0.8,0-1.8-0.4-2.5c-0.3-0.5-0.9-0.8-1.7-0.9c-0.4-0.1-2,0-2.1-0.5
	c-0.1-0.7,2.1-0.5,2.7-0.5h6.4c0.8,0,2.8-0.2,2.8,0.4c0,0.5-0.8,0.4-1.2,0.4c-1.9,0.3-2.1,1.4-2.2,3.5c-0.1,3.3-0.1,6.7-0.1,9.8
	c0,4.5-0.1,9,1.2,12c1.3,3,4.1,5.1,7.4,5.6c4,0.6,7.9-0.8,9.8-3.1c3-3.6,2.6-9.6,2.6-16.4c0-2.7,0.2-5.4,0-7.8c0-0.7,0-1.8-0.4-2.5
	C104.5,1.5,102.9,1.8,101.5,1.4"/>
	<path fill="#085496" d="M159.2,1.2c-1.1,1.5-2.3,2.8-3.5,4.2c-3.4,4.1-7.1,8.2-10.6,12.3c-4.7,5.5-9.4,11-14.1,16.4h-15
	c0-0.5,0.6-0.8,0.9-1.2c6.3-7.4,12.6-15.2,19-22.7c1.3-1.5,2.5-3.1,4-4.4c2.9-2.5,7-4.5,11.6-4.9c0.5-0.1,1.3,0,1.6-0.2
	C155.4,0.7,157.2,0.9,159.2,1.2"/>
	<path fill="#085496" d="M178.9,1.2c-1.1,1.5-2.3,2.8-3.5,4.2c-8.2,9.5-16.4,19.2-24.7,28.7h-15c0-0.4,0.4-0.6,0.6-0.9
	c6.3-7.6,12.9-15.3,19.3-23c1-1.1,1.8-2.3,2.8-3.4c1.7-1.8,4-3.1,6.2-4.1c1.8-0.8,3.8-1.5,5.7-1.7c0.7-0.1,1.8-0.1,2.4-0.3
	C175.1,0.7,177,0.9,178.9,1.2"/>
	<path fill="#085496" d="M198.5,1.2c-0.1,0.4-0.5,0.8-0.8,1.1c-2,2.3-4.1,4.8-6.2,7.2c-7.1,8.1-14,16.5-21.2,24.6h-15
	c0.1-0.5,0.5-0.9,0.9-1.2c6.2-7.3,12.4-14.8,18.6-22.2c1.3-1.5,2.5-3.3,4-4.6c2.9-2.5,7.2-4.8,11.9-5.2c0.5,0,1.3,0,1.6-0.2
	C194.6,0.7,196.9,0.9,198.5,1.2"/>
</svg>
